<svg width="38" height="42" viewBox="0 0 38 42" fill="none" xmlns="http://www.w3.org/2000/svg">
<g clip-path="url(#clip0_205_7471)">
<path d="M28.7254 36.2531C29.7997 34.7129 29.7997 32.2158 28.7254 30.6756C27.6511 29.1355 25.9093 29.1355 24.835 30.6756C23.7607 32.2158 23.7607 34.7129 24.835 36.2531C25.9093 37.7932 27.6511 37.7932 28.7254 36.2531Z" fill="#1EC28B"/>
<path d="M14.1369 20.2673C15.7483 17.957 15.7483 14.2115 14.1369 11.9012C12.5254 9.59095 9.91278 9.59095 8.30135 11.9012C6.68991 14.2115 6.68991 17.957 8.30135 20.2673C9.91278 22.5775 12.5254 22.5775 14.1369 20.2673Z" fill="#1EC28B"/>
<path d="M21.4316 28.7534C22.7744 26.8282 22.7744 23.7068 21.4316 21.7816C20.0887 19.8564 17.9115 19.8564 16.5686 21.7816C15.2258 23.7068 15.2258 26.8282 16.5686 28.7534C17.9115 30.6786 20.0887 30.6786 21.4316 28.7534Z" fill="#1EC28B"/>
<path d="M20.4586 41.1337C21.2643 39.9785 21.2643 38.1057 20.4586 36.9506C19.6529 35.7955 18.3466 35.7955 17.5408 36.9506C16.7351 38.1057 16.7351 39.9785 17.5408 41.1337C18.3466 42.2888 19.6529 42.2888 20.4586 41.1337Z" fill="#1EC28B"/>
<path d="M5.87008 28.7534C7.21294 26.8282 7.21294 23.7068 5.87008 21.7816C4.52722 19.8564 2.35001 19.8564 1.00715 21.7816C-0.335716 23.7068 -0.335717 26.8282 1.00715 28.7534C2.35001 30.6786 4.52722 30.6786 5.87008 28.7534Z" fill="#1EC28B"/>
<path d="M13.1648 36.2531C14.2391 34.7129 14.2391 32.2158 13.1648 30.6756C12.0905 29.1355 10.3487 29.1355 9.27447 30.6756C8.20018 32.2158 8.20018 34.7129 9.27447 36.2531C10.3487 37.7932 12.0905 37.7932 13.1648 36.2531Z" fill="#1EC28B"/>
<path d="M36.9931 28.7534C38.3359 26.8282 38.3359 23.7068 36.9931 21.7816C35.6502 19.8564 33.473 19.8564 32.1301 21.7816C30.7873 23.7068 30.7873 26.8282 32.1301 28.7534C33.473 30.6786 35.6502 30.6786 36.9931 28.7534Z" fill="#1EC28B"/>
<path d="M21.9181 10.0994C23.5295 7.78908 23.5295 4.04338 21.9181 1.73318C20.3067 -0.577118 17.694 -0.577118 16.0826 1.73318C14.4711 4.04338 14.4711 7.78908 16.0826 10.0994C17.694 12.4096 20.3067 12.4096 21.9181 10.0994Z" fill="#1EC28B"/>
<path d="M29.6983 20.2673C31.3098 17.957 31.3098 14.2115 29.6983 11.9012C28.0869 9.59095 25.4743 9.59095 23.8628 11.9012C22.2514 14.2115 22.2514 17.957 23.8628 20.2673C25.4743 22.5775 28.0869 22.5775 29.6983 20.2673Z" fill="#1EC28B"/>
</g>
<defs>
<clipPath id="clip0_205_7471">
<rect width="42" height="38" fill="white" transform="matrix(0 -1 1 0 0 42)"/>
</clipPath>
</defs>
</svg>
