<svg width="20" height="20" viewBox="0 0 20 20" fill="none" xmlns="http://www.w3.org/2000/svg">
<path d="M8.90954 1.04321C9.40419 0.221274 10.5958 0.221272 11.0905 1.04321L13.5546 5.13774C13.7323 5.43303 14.0222 5.64362 14.3579 5.72138L19.0135 6.79962C19.948 7.01607 20.3163 8.14937 19.6874 8.87381L16.5548 12.4826C16.3288 12.7429 16.2181 13.0836 16.2479 13.427L16.6611 18.1879C16.744 19.1436 15.78 19.844 14.8967 19.4698L10.4965 17.6056C10.1791 17.4712 9.82086 17.4712 9.50353 17.6056L5.1033 19.4698C4.22 19.844 3.25595 19.1436 3.3389 18.1879L3.75208 13.427C3.78188 13.0836 3.67116 12.7429 3.44525 12.4826L0.312573 8.87381C-0.316282 8.14938 0.0519502 7.01607 0.986515 6.79962L5.6421 5.72138C5.97785 5.64362 6.26771 5.43303 6.44541 5.13774L8.90954 1.04321Z" fill="#FAAE4B"/>
</svg>
